# xmcd
#
# Track frame offsets:
#	150
#	14145
#	54862
#	72050
#	88592
#	107424
#	126746
#	149383
#	163573
#	174245
#	192615
#	215149
#	235549
#	251481
#	267899
#	286326
# Disc length: 4147 seconds
# Revision: 1
# Processed by: cddbd v1.5.2PL0 Copyright (c) Steve Scherf et al.
#
# Submitted via: libkcddb 0.10
#
DISCID=e9103110
DTITLE=Diversaj artistoj - Verda Disco
DYEAR=1900
DGENRE=
TTITLE0=Red Emprez - Tiom sola
TTITLE1=Devil Blues - Flugu kun mi
TTITLE2=Bolo Young - Amikoj
TTITLE3=Schody - Nur Mantelo
TTITLE4=Oreiro - Espero por bestoj
TTITLE5=Cira and Nikon gaste Hukos - Demarsxe
TTITLE6=Zerova - Nenomita Loko
TTITLE7=Sami Muzycy gaste Diana Giurow - Danco
TTITLE8=Rima - Iluzi' finigxas
TTITLE9=Zero-85 - Malsekura
TTITLE10=Bright Ophidia - Interna knabino
TTITLE11=Milka and Chociej gaste Katarzyna Szymus - La Auxtuna
TTITLE12=Emptv - Humiligu min
TTITLE13=5set5 - Vi estis
TTITLE14=Zlodzieje Rowerow - Kie nun estas?
TTITLE15=My a - Naskigxfesta kanto
EXTD=
EXTT0=
EXTT1=
EXTT2=
EXTT3=
EXTT4=
EXTT5=
EXTT6=
EXTT7=
EXTT8=
EXTT9=
EXTT10=
EXTT11=
EXTT12=
EXTT13=
EXTT14=
EXTT15=
PLAYORDER=
